<svg width="100%" height="100%" id="svg" viewBox="0 0 1440 400" xmlns="http://www.w3.org/2000/svg" class="transition duration-300 ease-in-out delay-150"><defs><linearGradient id="gradient" x1="82%" y1="88%" x2="18%" y2="12%"><stop offset="5%" stop-color="#8ed1fc44"></stop><stop offset="95%" stop-color="#0693e344"></stop></linearGradient></defs><path d="M 0,400 C 0,400 0,80 0,80 C 18.50886672905274,80.32953148096868 37.01773345810548,80.65906296193735 63,87 C 88.98226654189452,93.34093703806265 122.4379328966308,105.69327963321928 147,100 C 171.5620671033692,94.30672036678072 187.23053495537133,70.56781850518553 210,66 C 232.76946504462867,61.43218149481448 262.639927281884,76.03544634603861 290,80 C 317.360072718116,83.96455365396139 342.20975591709265,77.29039611066 363,76 C 383.79024408290735,74.70960388934 400.52104904974533,78.8029692113214 424,78 C 447.47895095025467,77.1970307886786 477.70604788392586,71.49772704405439 504,76 C 530.2939521160741,80.50227295594561 552.6547594145512,95.2061226124611 574,93 C 595.3452405854488,90.7938773875389 615.6749144578691,71.67778250610121 641,65 C 666.3250855421309,58.3222174938988 696.6455827539719,64.0827473631341 721,75 C 745.3544172460281,85.9172526368659 763.7427545262433,101.99122804136239 787,100 C 810.2572454737567,98.00877195863761 838.3833991410545,77.95234047141635 865,78 C 891.6166008589455,78.04765952858365 916.7236489095395,98.19941007297224 939,100 C 961.2763510904605,101.80058992702776 980.7220052207879,85.25001923669467 1005,76 C 1029.2779947792121,66.74998076330533 1058.3883302073093,64.80051298024911 1082,60 C 1105.6116697926907,55.19948701975089 1123.724673949975,47.547928842308934 1144,56 C 1164.275326050025,64.45207115769107 1186.7129739927902,89.00777165051512 1212,95 C 1237.2870260072098,100.99222834948488 1265.4234300788642,88.42098455563055 1292,84 C 1318.5765699211358,79.57901544436945 1343.593305691753,83.30829012696269 1368,84 C 1392.406694308247,84.69170987303731 1416.2033471541235,82.34585493651866 1440,80 C 1440,80 1440,400 1440,400 Z" stroke="none" stroke-width="0" fill="url(#gradient)" class="transition-all duration-300 ease-in-out delay-150 path-0"></path><defs><linearGradient id="gradient" x1="82%" y1="88%" x2="18%" y2="12%"><stop offset="5%" stop-color="#8ed1fc66"></stop><stop offset="95%" stop-color="#0693e366"></stop></linearGradient></defs><path d="M 0,400 C 0,400 0,160 0,160 C 28.483279093260045,157.43664625055737 56.96655818652009,154.87329250111478 77,150 C 97.03344181347991,145.12670749888522 108.6170463471797,137.94347624609824 133,141 C 157.3829536528203,144.05652375390176 194.56525642476112,157.3528025144922 221,166 C 247.43474357523888,174.6471974855078 263.1219279537758,178.64531369593294 288,172 C 312.8780720462242,165.35468630406706 346.9470317601356,148.06594270177607 372,147 C 397.0529682398644,145.93405729822393 413.08994500568167,161.09091549696282 435,160 C 456.91005499431833,158.90908450303718 484.6931882171374,141.57039531037267 512,139 C 539.3068117828626,136.42960468962733 566.1373021257688,148.62750326154654 585,150 C 603.8626978742312,151.37249673845346 614.7576032797873,141.91959164344124 635,138 C 655.2423967202127,134.08040835655876 684.832284755082,135.6941301646885 713,147 C 741.167715244918,158.3058698353115 767.9132576998844,179.30388769780487 796,179 C 824.0867423001156,178.69611230219513 853.5146844453802,157.090319044092 876,144 C 898.4853155546198,130.909680955908 914.0280045185945,126.33483612582708 934,137 C 953.9719954814055,147.66516387417292 978.3732974802417,173.5703364525997 1000,177 C 1021.6267025197583,180.4296635474003 1040.4788055604383,161.38381806377419 1067,160 C 1093.5211944395617,158.61618193622581 1127.711480278004,174.8943912923036 1156,177 C 1184.288519721996,179.1056087076964 1206.675273327545,167.0386167670114 1232,155 C 1257.324726672455,142.9613832329886 1285.5874264118147,130.95114163965076 1305,136 C 1324.4125735881853,141.04885836034924 1334.9750210251957,163.15681667438548 1356,170 C 1377.0249789748043,176.84318332561452 1408.512489487402,168.42159166280726 1440,160 C 1440,160 1440,400 1440,400 Z" stroke="none" stroke-width="0" fill="url(#gradient)" class="transition-all duration-300 ease-in-out delay-150 path-1"></path><defs><linearGradient id="gradient" x1="82%" y1="88%" x2="18%" y2="12%"><stop offset="5%" stop-color="#8ed1fc88"></stop><stop offset="95%" stop-color="#0693e388"></stop></linearGradient></defs><path d="M 0,400 C 0,400 0,240 0,240 C 17.511602218563453,245.60283517091514 35.02320443712691,251.20567034183028 59,249 C 82.9767955628731,246.79432965816972 113.41878447005584,236.780153803594 140,242 C 166.58121552994416,247.219846196406 189.30165768264973,267.67371444379364 214,260 C 238.69834231735027,252.32628555620636 265.3745847993453,216.5249884212314 293,215 C 320.6254152006547,213.4750115787686 349.20000311996915,246.22633187128065 371,252 C 392.79999688003085,257.77366812871935 407.82540272077813,236.56968409364606 431,226 C 454.17459727922187,215.43031590635394 485.49838599691816,215.4949317541351 512,220 C 538.5016140030818,224.5050682458649 560.1810532915493,233.45058888981345 582,239 C 603.8189467084507,244.54941111018655 625.7774008368842,246.70271268661114 650,246 C 674.2225991631158,245.29728731338886 700.7093433609135,241.7385603637421 726,234 C 751.2906566390865,226.2614396362579 775.3852257194615,214.3430458584205 799,217 C 822.6147742805385,219.6569541415795 845.7497537612406,236.889256202576 866,236 C 886.2502462387594,235.110743797424 903.6157592355756,216.09992933127558 929,210 C 954.3842407644244,203.90007066872442 987.7872092964569,210.71102647232183 1015,211 C 1042.212790703543,211.28897352767817 1063.2354035785957,205.05596477943706 1089,216 C 1114.7645964214043,226.94403522056294 1145.2711763891605,255.06511440992983 1163,256 C 1180.7288236108395,256.93488559007017 1185.6798908647613,230.68357758084352 1211,233 C 1236.3201091352387,235.31642241915648 1282.009260151795,266.200575266696 1308,269 C 1333.990739848205,271.799424733304 1340.2830685280585,246.51412135237257 1359,237 C 1377.7169314719415,227.48587864762743 1408.8584657359706,233.74293932381372 1440,240 C 1440,240 1440,400 1440,400 Z" stroke="none" stroke-width="0" fill="url(#gradient)" class="transition-all duration-300 ease-in-out delay-150 path-2"></path><defs><linearGradient id="gradient" x1="82%" y1="88%" x2="18%" y2="12%"><stop offset="5%" stop-color="#8ed1fcff"></stop><stop offset="95%" stop-color="#0693e3ff"></stop></linearGradient></defs><path d="M 0,400 C 0,400 0,320 0,320 C 18.04960302968199,309.7659928631251 36.09920605936398,299.5319857262503 60,309 C 83.90079394063602,318.4680142737497 113.65277879222603,347.63804995812393 139,345 C 164.34722120777397,342.36195004187607 185.28967877173193,307.9158144412541 208,298 C 230.71032122826807,288.0841855587459 255.1885061208464,302.6986922768597 278,311 C 300.8114938791536,319.3013077231403 321.9562967448827,321.289416451307 348,316 C 374.0437032551173,310.710583548693 404.98630689962283,298.14364191791253 429,295 C 453.01369310037717,291.85635808208747 470.0984756566261,298.1360158770432 492,303 C 513.9015243433739,307.8639841229568 540.6197904738729,311.3122945739148 571,320 C 601.3802095261271,328.6877054260852 635.422362447883,342.61480582729774 660,346 C 684.577637552117,349.38519417270226 699.6907597345951,342.2284821168944 720,344 C 740.3092402654049,345.7715178831056 765.8145986137363,356.47126570512455 792,347 C 818.1854013862637,337.52873429487545 845.0508458104595,307.8864550626075 868,304 C 890.9491541895405,300.1135449373925 909.982018144426,321.98291404444564 933,326 C 956.017981855574,330.01708595555436 983.0210816118365,316.1818887596101 1005,307 C 1026.9789183881635,297.8181112403899 1043.9336554082274,293.2895309171141 1068,291 C 1092.0663445917726,288.7104690828859 1123.2442967552538,288.65998757193347 1148,303 C 1172.7557032447462,317.34001242806653 1191.0891575707565,346.0705187951518 1216,346 C 1240.9108424292435,345.9294812048482 1272.3990729617194,317.0579372474591 1299,310 C 1325.6009270382806,302.9420627525409 1347.3145505823657,317.6977322150117 1370,323 C 1392.6854494176343,328.3022677849883 1416.342724708817,324.15113389249416 1440,320 C 1440,320 1440,400 1440,400 Z" stroke="none" stroke-width="0" fill="url(#gradient)" class="transition-all duration-300 ease-in-out delay-150 path-3"></path></svg>